<?xml version="1.0" encoding="UTF-8" ?>
<!DOCTYPE svg PUBLIC "-//W3C//DTD SVG 1.1//EN" "http://www.w3.org/Graphics/SVG/1.1/DTD/svg11.dtd">
<svg width="625pt" height="871pt" viewBox="0 0 625 871" version="1.1" xmlns="http://www.w3.org/2000/svg">
<g id="#070707ff">
<path fill="#070707" opacity="1.00" d=" M 0.00 0.00 L 0.15 0.00 C 0.11 0.04 0.04 0.11 0.00 0.15 L 0.00 0.00 Z" />
<path fill="#070707" opacity="1.00" d=" M 495.72 179.08 C 495.60 175.06 501.48 174.61 504.57 174.36 C 504.49 178.35 498.93 180.94 495.72 179.08 Z" />
<path fill="#070707" opacity="1.00" d=" M 502.02 181.14 C 502.72 180.39 503.38 179.60 503.99 178.76 C 504.33 181.23 504.73 183.69 505.06 186.17 C 502.33 185.26 499.62 184.32 496.92 183.35 C 498.62 182.62 500.31 181.86 502.02 181.14 Z" />
<path fill="#070707" opacity="1.00" d=" M 265.74 271.71 C 272.56 269.52 279.92 265.68 287.12 268.67 C 293.05 270.05 294.90 276.61 295.78 281.85 C 299.48 308.49 298.15 335.45 298.79 362.25 C 287.80 364.08 280.43 373.43 269.98 376.53 C 266.87 377.62 263.55 377.78 260.28 377.73 C 256.17 365.62 254.89 352.78 253.76 340.11 C 252.68 324.68 251.57 309.25 249.77 293.88 C 249.49 289.37 249.00 284.66 250.37 280.30 C 253.82 275.13 260.30 273.79 265.74 271.71 M 279.43 271.44 C 270.62 273.51 262.11 276.82 254.24 281.28 C 252.82 287.44 253.30 293.74 254.25 299.93 C 257.45 298.99 260.58 297.79 263.48 296.13 C 268.10 295.06 272.41 292.92 276.55 290.66 C 279.90 288.14 282.13 284.31 285.96 282.36 C 285.19 280.90 284.44 279.42 283.72 277.93 C 286.62 278.33 288.52 280.88 290.91 282.32 C 291.91 276.05 285.54 270.21 279.43 271.44 M 285.03 285.75 C 285.44 285.94 286.26 286.31 286.67 286.49 C 282.67 291.73 276.99 295.42 270.92 297.84 C 266.01 299.71 261.07 301.79 255.77 302.19 C 255.80 306.68 255.80 311.19 255.19 315.66 C 257.52 315.20 259.90 314.87 262.13 314.02 C 270.23 310.79 278.09 306.98 285.58 302.50 C 288.06 301.02 288.74 297.90 289.56 295.34 C 291.08 295.17 292.61 295.03 294.15 294.92 C 293.19 292.49 292.54 289.90 292.90 287.27 C 291.94 286.22 291.06 285.10 289.92 284.26 C 288.23 284.58 286.60 285.10 285.03 285.75 M 291.47 303.64 L 291.40 304.40 C 288.37 305.49 285.53 307.01 282.89 308.85 C 279.76 311.10 275.93 311.93 272.46 313.50 C 267.16 315.83 261.78 318.07 256.11 319.35 C 256.91 323.56 257.24 327.84 257.39 332.12 C 261.85 330.33 266.09 327.81 270.92 327.14 C 273.90 327.09 276.13 324.99 278.45 323.39 C 282.51 320.24 286.90 317.25 290.04 313.13 C 295.30 313.59 295.78 305.30 291.47 303.64 M 290.93 317.59 C 290.66 318.19 290.13 319.39 289.87 319.99 C 282.18 329.33 270.01 332.36 259.13 336.15 C 256.53 340.28 258.53 345.86 260.00 350.18 C 269.85 343.47 282.62 340.97 290.15 331.09 C 293.66 328.69 295.76 324.25 294.86 320.02 C 294.51 318.18 292.44 317.86 290.93 317.59 M 290.91 333.55 C 290.98 335.29 291.29 337.05 291.06 338.80 C 287.87 338.90 285.01 340.77 283.56 343.58 C 280.18 344.42 277.70 347.03 274.63 348.52 C 270.02 351.05 264.88 352.59 259.61 352.89 C 260.62 359.81 261.13 366.94 263.92 373.43 C 268.73 371.41 273.26 368.83 277.74 366.18 C 283.70 363.95 291.08 362.58 294.56 356.65 C 295.55 351.87 294.77 346.88 295.01 342.02 C 294.95 338.85 295.49 333.58 290.91 333.55 Z" />
<path fill="#070707" opacity="1.00" d=" M 88.58 765.51 C 94.05 761.74 101.11 761.76 107.42 762.77 C 112.85 763.48 116.94 767.76 119.90 772.06 C 124.00 777.98 124.79 785.60 123.50 792.55 C 122.05 798.48 117.23 803.22 111.82 805.76 C 104.30 807.16 96.58 807.07 88.95 807.05 C 86.03 804.74 81.83 804.54 79.45 801.56 C 77.43 800.00 79.25 798.09 79.54 796.38 L 78.96 796.01 C 77.10 795.19 78.47 792.49 78.11 790.94 C 76.78 781.49 80.40 770.90 88.58 765.51 M 92.74 767.80 C 84.54 770.93 79.93 780.50 81.86 788.96 C 83.93 789.51 86.08 789.91 88.03 790.83 C 90.21 791.89 91.14 795.14 93.94 794.87 C 104.34 794.51 114.41 785.55 115.03 775.00 C 113.00 771.77 110.12 768.00 105.96 767.85 C 101.58 767.52 97.00 766.05 92.74 767.80 M 117.23 781.39 C 112.74 788.07 106.90 794.44 98.96 796.86 C 94.13 798.09 90.47 794.17 85.99 793.43 C 85.97 794.12 85.93 795.52 85.91 796.22 C 86.98 798.24 87.38 800.52 88.02 802.71 C 95.09 803.52 102.88 806.52 109.54 802.64 C 113.69 799.14 116.92 794.72 120.24 790.47 C 121.01 786.14 120.60 781.82 118.59 777.87 C 118.19 779.05 117.84 780.27 117.23 781.39 Z" />
</g>
<g id="#5d5d5dff">
<path fill="#5d5d5d" opacity="1.00" d=" M 0.15 0.00 L 625.00 0.00 L 625.00 2.01 C 416.67 1.95 208.33 2.08 0.00 1.95 L 0.00 0.15 C 0.04 0.11 0.11 0.04 0.15 0.00 Z" />
</g>
<g id="#000000ff">
<path fill="#000000" opacity="1.00" d=" M 0.00 1.95 C 208.33 2.08 416.67 1.95 625.00 2.01 L 625.00 871.00 L 0.00 871.00 L 0.00 1.95 M 7.01 12.00 C 7.00 294.67 6.99 577.33 7.01 860.00 C 43.00 860.08 79.00 859.80 114.98 860.26 C 202.65 860.28 290.33 860.26 378.00 860.27 C 397.00 860.39 415.99 859.79 434.99 860.00 C 494.99 860.00 555.00 860.00 615.00 860.00 C 615.14 790.65 614.69 721.30 615.27 651.96 C 615.25 492.98 615.30 334.00 615.24 175.02 C 614.67 120.69 615.18 66.34 614.98 12.00 C 412.32 12.00 209.67 12.00 7.01 12.00 Z" />
</g>
<g id="#b60e16ff">
<path fill="#b60e16" opacity="1.00" d=" M 7.01 12.00 C 209.67 12.00 412.32 12.00 614.98 12.00 C 615.18 66.34 614.67 120.69 615.24 175.02 C 615.30 334.00 615.25 492.98 615.27 651.96 C 614.69 721.30 615.14 790.65 615.00 860.00 C 555.00 860.00 494.99 860.00 434.99 860.00 C 415.99 859.79 397.00 860.39 378.00 860.27 C 290.33 860.26 202.65 860.28 114.98 860.26 C 79.00 859.80 43.00 860.08 7.01 860.00 C 6.99 577.33 7.00 294.67 7.01 12.00 M 346.87 19.21 C 324.89 22.06 302.87 25.61 281.77 32.59 C 265.48 37.34 248.70 41.81 234.39 51.28 C 227.80 55.56 222.45 61.38 216.69 66.67 C 209.13 74.54 202.83 83.51 195.85 91.88 C 190.00 98.92 183.78 106.08 180.95 114.96 C 179.43 120.29 175.03 124.13 173.39 129.41 C 169.79 139.96 165.37 150.20 161.75 160.74 C 158.32 169.40 158.31 178.85 157.37 187.99 C 157.04 194.80 156.69 201.63 156.79 208.45 C 155.70 211.17 156.11 214.16 156.00 217.01 C 156.08 220.85 155.63 224.80 156.78 228.54 C 156.70 234.24 156.82 239.97 157.26 245.66 C 156.52 252.40 157.26 259.18 157.14 265.94 C 157.19 269.41 156.73 272.98 157.77 276.35 C 157.66 301.56 157.75 326.78 157.73 351.99 C 157.65 357.97 153.99 363.16 153.44 369.08 C 152.76 377.07 147.98 383.97 147.18 391.93 C 146.49 400.24 141.56 407.43 140.55 415.68 C 139.48 424.63 134.93 432.56 132.18 441.03 C 130.74 445.32 130.67 449.93 129.36 454.26 C 127.71 459.81 124.94 465.04 124.27 470.86 C 123.70 476.56 121.13 481.74 119.26 487.08 C 118.04 490.30 118.05 493.79 117.32 497.13 C 114.80 508.02 108.57 517.78 107.12 528.95 C 106.71 532.78 104.96 536.25 103.91 539.92 C 101.61 547.69 100.31 555.75 97.45 563.36 C 96.64 565.52 96.13 567.79 95.85 570.10 C 94.41 582.30 86.73 592.69 85.21 604.88 C 84.47 612.25 80.22 618.68 79.40 626.04 C 78.65 632.94 74.86 639.06 74.12 645.96 C 73.39 653.75 69.34 660.61 66.92 667.91 C 65.23 672.94 65.51 678.43 63.47 683.37 C 61.88 687.42 60.58 691.59 60.06 695.93 C 59.16 703.46 54.81 709.98 53.45 717.39 C 50.20 732.93 46.43 748.35 43.13 763.88 C 41.47 771.18 43.06 778.63 42.74 786.01 C 42.62 788.76 42.85 791.54 43.60 794.20 C 45.98 802.83 47.30 812.06 52.44 819.61 C 55.30 823.82 59.50 826.97 64.28 828.70 C 76.23 833.50 89.34 833.21 101.94 834.72 C 105.05 835.22 107.96 833.75 110.75 832.63 C 115.75 830.36 120.68 827.45 124.14 823.10 C 127.32 818.60 128.21 812.94 131.33 808.41 C 135.40 802.49 137.43 795.56 139.93 788.92 C 141.74 783.99 145.02 779.81 147.07 775.01 C 150.89 766.33 153.02 756.94 157.77 748.66 C 162.42 740.63 164.54 731.38 169.73 723.64 C 174.22 717.15 174.88 708.88 179.30 702.35 C 185.12 693.81 187.11 683.49 191.16 674.14 C 192.99 669.83 196.04 666.19 197.80 661.85 C 200.28 656.01 201.47 649.54 205.31 644.35 C 209.30 638.93 210.73 632.24 213.13 626.08 C 214.99 621.22 218.50 617.23 220.47 612.43 C 223.48 605.29 225.36 597.71 228.65 590.69 C 230.40 586.87 233.22 583.64 234.76 579.72 C 237.03 574.09 238.29 567.97 241.86 562.95 C 245.19 558.40 246.78 552.94 248.70 547.72 C 250.11 543.74 252.86 540.46 254.72 536.70 C 258.97 528.40 260.76 519.12 264.83 510.75 C 266.59 507.02 269.21 503.75 270.76 499.91 C 272.89 494.71 274.38 489.20 277.38 484.40 C 279.40 481.23 280.95 477.81 282.52 474.41 C 290.08 459.24 300.03 445.47 309.60 431.55 C 312.57 427.27 315.22 422.69 319.10 419.14 C 326.42 412.05 336.19 408.19 345.96 405.85 C 349.47 405.12 349.60 400.77 351.98 398.78 C 355.66 398.54 359.35 399.01 363.03 399.27 C 380.31 400.78 397.68 401.47 415.02 400.81 C 428.79 399.13 442.05 394.72 455.04 390.04 C 471.33 383.01 487.74 375.77 502.10 365.20 C 515.39 356.70 525.45 344.17 533.90 331.05 C 540.95 320.02 547.51 308.67 554.81 297.80 C 556.12 296.25 555.94 293.96 554.35 292.68 C 547.38 285.43 537.11 283.39 528.09 279.83 C 520.60 276.92 512.28 279.77 504.84 276.73 C 522.08 272.34 537.46 261.05 546.79 245.88 C 548.58 242.93 550.03 239.76 552.09 236.97 C 554.19 234.04 556.75 231.29 557.71 227.73 C 558.36 224.18 557.85 220.55 558.09 216.96 C 558.52 210.65 559.77 204.36 559.30 198.01 C 558.27 180.22 550.61 162.70 537.66 150.37 C 533.79 147.12 529.94 143.60 525.11 141.86 C 519.04 139.63 513.04 137.24 507.07 134.76 C 507.27 134.36 507.67 133.58 507.87 133.18 C 517.77 132.47 527.75 133.60 537.62 132.70 C 543.74 133.36 549.90 132.89 556.05 133.01 C 558.84 132.97 561.77 133.38 564.38 132.11 C 569.24 132.57 574.11 132.12 578.96 131.62 C 578.90 128.74 577.57 126.14 576.34 123.61 C 570.93 112.58 562.55 103.43 556.11 93.03 C 548.87 81.71 538.44 73.01 527.61 65.29 C 522.89 62.25 517.57 60.30 512.88 57.20 C 508.99 54.61 504.47 53.30 500.08 51.86 C 493.66 49.79 488.42 45.30 482.22 42.75 C 477.05 40.49 471.33 40.27 465.92 38.91 C 451.40 34.65 437.97 26.76 422.83 24.63 C 419.82 24.05 416.97 22.86 414.04 22.01 C 401.35 18.28 388.13 16.71 374.95 16.35 C 365.52 16.47 356.21 18.09 346.87 19.21 M 216.17 758.26 C 213.09 759.23 214.75 763.24 213.44 765.44 C 205.61 777.90 197.25 790.22 192.06 804.09 C 190.57 807.96 190.86 812.20 190.72 816.28 C 192.69 816.10 194.66 815.91 196.64 815.77 C 199.37 805.85 203.24 796.23 208.14 787.18 C 208.80 785.99 209.51 784.55 211.04 784.42 C 216.99 783.18 222.99 782.01 229.08 781.82 C 231.15 782.01 230.91 779.29 231.65 778.04 C 225.49 777.42 219.30 777.97 213.22 779.01 C 217.13 773.37 221.03 767.71 225.47 762.47 C 232.75 760.92 240.13 759.80 247.59 759.84 C 247.76 757.94 248.84 755.50 246.86 754.18 C 236.47 752.62 226.05 755.25 216.17 758.26 M 372.86 755.92 C 362.91 765.53 356.59 778.10 350.49 790.33 C 347.48 796.92 344.00 803.69 343.79 811.08 C 344.33 815.06 349.82 814.68 352.65 813.66 C 358.11 809.71 362.71 803.78 364.00 797.07 C 361.75 797.51 359.19 797.80 357.68 799.74 C 355.38 802.48 353.71 805.72 351.03 808.14 C 351.77 804.09 352.16 799.46 355.47 796.56 C 365.61 787.58 374.64 777.17 381.19 765.27 C 383.20 761.89 383.36 757.86 383.24 754.04 C 379.77 754.20 375.54 753.02 372.86 755.92 M 470.85 757.90 C 463.39 773.33 454.24 787.86 445.56 802.62 C 443.38 805.63 447.54 810.31 450.65 807.74 C 459.61 794.63 467.16 780.60 474.79 766.69 C 476.67 763.42 477.33 759.67 477.98 756.02 C 475.57 756.35 471.83 754.77 470.85 757.90 M 380.95 778.19 C 387.42 780.56 392.44 772.81 390.84 767.05 C 384.85 766.71 379.68 772.15 380.95 778.19 M 394.64 780.63 C 391.61 782.68 387.86 783.45 384.91 785.70 C 386.55 786.77 388.30 787.75 389.72 789.14 C 385.18 796.42 380.81 805.30 384.28 813.95 C 392.30 816.75 398.93 809.72 403.62 804.20 C 403.21 807.36 401.06 811.44 404.23 813.84 C 408.43 815.35 412.44 812.51 415.86 810.38 C 413.16 816.95 405.36 818.10 400.69 822.72 C 396.56 826.50 391.64 830.88 391.70 836.97 C 391.59 839.79 392.79 843.61 396.02 844.10 C 399.44 844.46 403.33 844.51 406.04 842.04 C 414.01 835.91 416.60 825.72 421.28 817.30 C 425.21 812.52 431.10 809.69 434.74 804.59 C 436.94 801.94 437.49 798.45 437.85 795.15 C 432.19 796.25 430.20 802.35 426.23 805.81 C 429.05 799.00 434.35 793.31 435.72 785.88 C 433.56 785.98 431.42 786.08 429.28 786.19 C 423.53 793.74 418.50 802.57 409.88 807.20 C 412.79 799.95 419.93 795.33 422.20 787.74 C 419.76 787.73 417.10 787.56 415.03 789.09 C 410.36 791.95 408.62 797.48 405.10 801.40 C 404.57 799.91 404.04 798.41 403.53 796.94 C 397.16 799.28 396.23 807.73 389.70 809.75 C 390.66 800.71 394.82 792.31 399.75 784.82 C 403.84 782.77 408.48 782.17 412.98 781.75 C 412.99 780.50 413.00 779.27 413.01 778.05 C 409.95 777.98 406.90 777.79 403.85 777.69 C 406.14 774.77 409.15 771.72 408.37 767.65 C 400.65 767.11 398.29 775.59 394.64 780.63 M 293.40 790.54 C 288.92 795.68 284.50 801.76 284.43 808.87 C 285.27 813.27 290.61 811.93 293.84 812.46 C 288.70 818.28 280.93 820.90 275.76 826.71 C 272.79 829.96 271.10 834.56 271.94 838.95 C 274.15 843.38 280.99 843.55 284.30 840.24 C 291.74 834.34 294.72 825.05 299.00 816.98 C 306.86 811.48 314.49 804.91 318.16 795.78 C 311.41 794.27 309.29 802.19 305.19 805.72 C 306.32 802.79 307.87 800.05 309.51 797.39 C 311.14 794.86 311.12 791.73 311.54 788.87 C 311.68 787.03 311.18 784.34 308.99 784.05 C 302.93 782.37 297.23 786.18 293.40 790.54 M 321.69 792.68 C 317.71 797.80 315.01 804.38 316.19 810.95 C 317.14 814.27 321.17 814.32 324.00 814.27 C 326.14 814.43 327.08 811.65 328.91 811.29 C 331.48 814.53 335.55 818.24 339.94 815.76 C 340.15 811.79 334.62 810.11 335.79 806.04 C 336.97 799.51 342.24 793.93 340.93 786.96 C 340.48 783.43 335.75 783.13 333.01 783.80 C 328.10 784.83 324.71 788.98 321.69 792.68 M 239.23 786.13 C 232.33 794.84 227.67 805.13 224.90 815.86 C 226.90 815.96 228.91 816.08 230.91 816.25 C 234.65 810.64 237.75 804.27 243.40 800.29 C 249.11 804.84 257.09 800.92 260.79 795.65 C 262.33 794.45 260.90 791.51 259.06 792.13 C 256.06 792.84 253.59 794.87 250.84 796.18 C 253.08 792.66 255.88 789.54 258.03 785.95 C 253.49 785.12 248.81 786.46 245.44 789.61 C 245.53 788.32 245.60 787.00 245.68 785.73 C 243.53 785.88 241.38 786.01 239.23 786.13 M 376.30 787.24 C 369.59 795.59 364.49 805.57 363.32 816.32 C 365.40 816.15 367.49 815.99 369.59 815.86 C 372.47 805.16 378.60 795.79 382.91 785.69 C 380.78 786.25 377.77 785.17 376.30 787.24 M 268.81 789.83 C 262.68 796.05 257.23 805.14 260.75 814.06 C 263.20 814.00 265.66 814.11 268.11 813.95 C 270.01 813.39 271.21 811.59 272.74 810.43 C 275.32 814.57 280.24 818.01 285.27 816.12 C 284.80 811.88 280.01 810.10 279.36 806.04 C 279.83 800.22 284.96 795.94 284.89 789.95 C 282.95 789.75 281.01 789.96 279.07 790.01 C 274.53 795.61 272.84 803.88 265.95 807.28 C 268.05 800.20 272.74 794.38 277.54 788.94 C 274.79 787.76 270.87 787.09 268.81 789.83 M 440.58 812.40 C 438.92 815.41 438.15 818.83 437.95 822.25 C 440.50 822.22 443.06 822.07 445.61 821.80 C 446.65 818.62 447.39 815.33 447.30 811.98 C 445.08 812.12 442.69 811.58 440.58 812.40 Z" />
<path fill="#b60e16" opacity="1.00" d=" M 444.43 134.38 C 455.38 133.49 466.37 134.19 477.34 134.00 C 476.56 135.29 475.79 136.59 474.89 137.80 C 465.59 141.56 455.91 145.42 448.71 152.66 C 440.44 160.83 434.42 170.99 429.24 181.31 C 424.77 192.93 423.39 205.60 423.85 217.99 C 424.56 229.53 429.99 239.98 434.77 250.27 C 437.44 256.49 442.80 260.99 448.17 264.85 C 452.97 268.39 458.54 271.07 462.26 275.90 C 447.82 275.82 433.44 274.23 419.02 274.03 C 407.70 274.60 396.37 272.76 385.60 269.38 C 375.47 266.13 365.72 260.39 359.53 251.57 C 358.36 248.04 359.38 244.17 359.33 240.51 C 360.17 234.87 360.15 229.16 359.81 223.48 C 360.14 217.49 360.12 211.47 359.82 205.48 C 360.13 199.50 360.23 193.48 359.30 187.55 C 359.14 181.40 358.42 175.10 359.97 169.08 C 360.62 166.08 363.07 164.05 365.42 162.32 C 376.52 154.19 386.87 145.02 398.39 137.45 C 401.42 135.50 405.12 135.25 408.60 134.77 C 417.38 135.16 426.17 134.79 434.96 135.02 C 438.13 135.16 441.29 134.85 444.43 134.38 Z" />
<path fill="#b60e16" opacity="1.00" d=" M 360.30 785.09 C 364.34 776.82 368.24 767.86 375.90 762.25 C 372.16 770.69 367.12 778.80 360.30 785.09 Z" />
<path fill="#b60e16" opacity="1.00" d=" M 92.74 767.80 C 97.00 766.05 101.58 767.52 105.96 767.85 C 110.12 768.00 113.00 771.77 115.03 775.00 C 114.41 785.55 104.34 794.51 93.94 794.87 C 91.14 795.14 90.21 791.89 88.03 790.83 C 86.08 789.91 83.93 789.51 81.86 788.96 C 79.93 780.50 84.54 770.93 92.74 767.80 Z" />
<path fill="#b60e16" opacity="1.00" d=" M 304.81 788.22 C 304.11 793.36 298.83 796.50 298.79 801.80 C 296.66 804.14 294.42 806.48 291.47 807.79 C 293.59 800.03 297.98 792.69 304.81 788.22 Z" />
<path fill="#b60e16" opacity="1.00" d=" M 323.03 808.15 C 322.94 800.30 327.96 792.76 335.21 789.78 C 332.40 796.58 328.75 803.34 323.03 808.15 Z" />
<path fill="#b60e16" opacity="1.00" d=" M 278.04 837.19 C 279.87 831.61 283.23 826.47 288.02 823.00 C 285.68 828.20 283.99 835.03 278.04 837.19 Z" />
<path fill="#b60e16" opacity="1.00" d=" M 398.83 840.34 C 398.16 832.59 404.29 826.62 410.26 822.75 C 407.82 829.28 405.23 836.66 398.83 840.34 Z" />
</g>
<g id="#4f4e4eff">
<path fill="#4f4e4e" opacity="1.00" d=" M 346.87 19.21 C 356.21 18.09 365.52 16.47 374.95 16.35 C 388.13 16.71 401.35 18.28 414.04 22.01 C 416.97 22.86 419.82 24.05 422.83 24.63 C 437.97 26.76 451.40 34.65 465.92 38.91 C 471.33 40.27 477.05 40.49 482.22 42.75 C 488.42 45.30 493.66 49.79 500.08 51.86 C 504.47 53.30 508.99 54.61 512.88 57.20 C 517.57 60.30 522.89 62.25 527.61 65.29 C 538.44 73.01 548.87 81.71 556.11 93.03 C 562.55 103.43 570.93 112.58 576.34 123.61 C 577.57 126.14 578.90 128.74 578.96 131.62 C 574.11 132.12 569.24 132.57 564.38 132.11 C 555.47 132.07 546.43 131.14 537.62 132.70 C 527.75 133.60 517.77 132.47 507.87 133.18 C 506.50 133.51 505.16 133.96 503.85 134.45 C 503.81 134.47 503.71 134.51 503.67 134.52 L 503.57 134.65 C 503.36 134.93 502.93 135.50 502.72 135.78 C 498.46 136.24 494.13 135.89 489.89 136.62 C 484.90 137.17 479.91 139.24 474.89 137.80 C 475.79 136.59 476.56 135.29 477.34 134.00 C 466.37 134.19 455.38 133.49 444.43 134.38 C 435.66 133.57 426.86 134.15 418.07 133.94 C 414.89 133.84 411.73 134.24 408.60 134.77 C 405.12 135.25 401.42 135.50 398.39 137.45 C 386.87 145.02 376.52 154.19 365.42 162.32 C 363.07 164.05 360.62 166.08 359.97 169.08 C 358.42 175.10 359.14 181.40 359.30 187.55 C 358.57 193.51 358.66 199.57 359.82 205.48 C 360.12 211.47 360.14 217.49 359.81 223.48 C 358.66 229.09 358.66 234.84 359.33 240.51 C 359.38 244.17 358.36 248.04 359.53 251.57 C 365.72 260.39 375.47 266.13 385.60 269.38 C 396.37 272.76 407.70 274.60 419.02 274.03 C 433.44 274.23 447.82 275.82 462.26 275.90 C 469.37 276.31 476.51 275.71 483.62 276.33 C 490.50 277.51 497.53 277.33 504.46 276.70 L 504.84 276.73 C 512.28 279.77 520.60 276.92 528.09 279.83 C 537.11 283.39 547.38 285.43 554.35 292.68 C 555.94 293.96 556.12 296.25 554.81 297.80 C 547.51 308.67 540.95 320.02 533.90 331.05 C 525.45 344.17 515.39 356.70 502.10 365.20 C 487.74 375.77 471.33 383.01 455.04 390.04 C 442.05 394.72 428.79 399.13 415.02 400.81 C 397.68 401.47 380.31 400.78 363.03 399.27 C 359.35 399.01 355.66 398.54 351.98 398.78 C 349.60 400.77 349.47 405.12 345.96 405.85 C 336.19 408.19 326.42 412.05 319.10 419.14 C 315.22 422.69 312.57 427.27 309.60 431.55 C 300.03 445.47 290.08 459.24 282.52 474.41 C 280.95 477.81 279.40 481.23 277.38 484.40 C 274.38 489.20 272.89 494.71 270.76 499.91 C 269.21 503.75 266.59 507.02 264.83 510.75 C 260.76 519.12 258.97 528.40 254.72 536.70 C 252.86 540.46 250.11 543.74 248.70 547.72 C 246.78 552.94 245.19 558.40 241.86 562.95 C 238.29 567.97 237.03 574.09 234.76 579.72 C 233.22 583.64 230.40 586.87 228.65 590.69 C 225.36 597.71 223.48 605.29 220.47 612.43 C 218.50 617.23 214.99 621.22 213.13 626.08 C 210.73 632.24 209.30 638.93 205.31 644.35 C 201.47 649.54 200.28 656.01 197.80 661.85 C 196.04 666.19 192.99 669.83 191.16 674.14 C 187.11 683.49 185.12 693.81 179.30 702.35 C 174.88 708.88 174.22 717.15 169.73 723.64 C 164.54 731.38 162.42 740.63 157.77 748.66 C 153.02 756.94 150.89 766.33 147.07 775.01 C 145.02 779.81 141.74 783.99 139.93 788.92 C 137.43 795.56 135.40 802.49 131.33 808.41 C 128.21 812.94 127.32 818.60 124.14 823.10 C 120.68 827.45 115.75 830.36 110.75 832.63 C 107.96 833.75 105.05 835.22 101.94 834.72 C 89.34 833.21 76.23 833.50 64.28 828.70 C 59.50 826.97 55.30 823.82 52.44 819.61 C 47.30 812.06 45.98 802.83 43.60 794.20 C 42.85 791.54 42.62 788.76 42.74 786.01 C 43.06 778.63 41.47 771.18 43.13 763.88 C 46.43 748.35 50.20 732.93 53.45 717.39 C 54.81 709.98 59.16 703.46 60.06 695.93 C 60.58 691.59 61.88 687.42 63.47 683.37 C 65.51 678.43 65.23 672.94 66.92 667.91 C 69.34 660.61 73.39 653.75 74.12 645.96 C 74.86 639.06 78.65 632.94 79.40 626.04 C 80.22 618.68 84.47 612.25 85.21 604.88 C 86.73 592.69 94.41 582.30 95.85 570.10 C 96.13 567.79 96.64 565.52 97.45 563.36 C 100.31 555.75 101.61 547.69 103.91 539.92 C 104.96 536.25 106.71 532.78 107.12 528.95 C 108.57 517.78 114.80 508.02 117.32 497.13 C 118.05 493.79 118.04 490.30 119.26 487.08 C 121.13 481.74 123.70 476.56 124.27 470.86 C 124.94 465.04 127.71 459.81 129.36 454.26 C 130.67 449.93 130.74 445.32 132.18 441.03 C 134.93 432.56 139.48 424.63 140.55 415.68 C 141.56 407.43 146.49 400.24 147.18 391.93 C 147.98 383.97 152.76 377.07 153.44 369.08 C 153.99 363.16 157.65 357.97 157.73 351.99 C 157.75 326.78 157.66 301.56 157.77 276.35 C 158.36 266.14 158.16 255.85 157.26 245.66 C 156.82 239.97 156.70 234.24 156.78 228.54 C 156.93 221.84 156.94 215.14 156.79 208.45 C 156.69 201.63 157.04 194.80 157.37 187.99 C 158.31 178.85 158.32 169.40 161.75 160.74 C 165.37 150.20 169.79 139.96 173.39 129.41 C 175.03 124.13 179.43 120.29 180.95 114.96 C 183.78 106.08 190.00 98.92 195.85 91.88 C 202.83 83.51 209.13 74.54 216.69 66.67 C 222.45 61.38 227.80 55.56 234.39 51.28 C 248.70 41.81 265.48 37.34 281.77 32.59 C 302.87 25.61 324.89 22.06 346.87 19.21 M 403.08 29.75 C 387.71 31.28 372.26 29.18 356.89 30.82 C 343.85 31.34 331.46 35.64 318.91 38.76 C 310.91 40.85 302.96 43.48 295.89 47.84 C 283.80 55.34 271.03 61.90 260.06 71.04 C 243.93 85.52 233.92 105.15 224.03 124.08 C 210.95 148.40 201.18 174.87 198.31 202.47 C 194.21 252.90 196.37 303.53 195.98 354.06 C 195.67 363.26 190.53 371.24 188.15 379.93 C 183.61 396.18 176.64 411.60 171.51 427.65 C 168.22 438.97 163.44 449.78 160.11 461.08 C 157.30 472.07 152.82 482.52 149.39 493.31 C 122.01 590.64 95.26 688.17 66.31 785.06 C 64.24 791.50 62.17 798.16 62.92 805.02 C 63.24 812.92 68.48 819.99 75.34 823.60 C 79.77 825.69 84.54 826.91 89.05 828.80 C 102.38 834.53 119.48 827.33 125.01 813.99 C 157.59 739.93 191.70 666.56 224.66 592.66 C 240.69 556.71 256.69 520.75 273.13 484.98 C 276.90 477.24 279.99 469.10 284.79 461.90 C 293.63 448.95 300.88 434.96 310.44 422.50 C 313.34 418.77 316.18 414.87 320.09 412.12 C 328.25 406.12 338.33 404.00 347.63 400.43 C 347.89 355.57 351.18 310.81 352.95 266.00 C 353.83 255.52 354.85 245.04 355.69 234.55 C 355.27 210.98 355.71 187.39 355.69 163.81 C 363.14 159.06 369.80 153.24 376.47 147.48 C 381.31 143.22 386.90 139.92 391.79 135.72 C 394.54 133.60 397.43 131.06 401.08 130.90 C 441.70 129.70 482.33 128.92 522.96 128.53 C 536.76 128.80 550.56 127.88 564.36 128.46 C 567.45 128.46 570.53 128.08 573.62 127.94 C 562.18 109.69 551.04 90.67 534.71 76.27 C 526.34 68.81 516.13 64.00 506.30 58.82 C 497.48 54.56 488.68 50.21 479.63 46.48 C 463.94 41.52 448.29 36.44 432.62 31.44 C 423.10 28.30 412.91 28.72 403.08 29.75 M 357.65 260.21 C 355.39 277.39 356.47 294.77 354.77 312.00 C 354.43 314.89 354.22 317.80 354.08 320.71 C 353.95 345.17 351.94 369.57 351.32 394.00 C 371.88 395.11 392.43 398.26 413.06 396.62 C 435.44 394.47 455.97 384.65 476.71 376.74 C 487.82 371.90 496.97 363.77 506.52 356.50 C 511.72 352.77 516.01 347.97 520.18 343.16 C 531.60 329.59 540.62 314.22 549.22 298.76 C 536.17 299.65 522.91 297.82 510.03 300.35 C 491.34 299.64 472.63 300.12 453.94 300.13 C 441.96 300.75 429.95 299.89 417.99 300.71 C 410.66 300.96 403.32 300.74 396.06 299.73 C 396.13 298.92 396.28 297.30 396.35 296.48 C 395.88 296.61 394.95 296.85 394.49 296.98 C 388.89 291.09 383.07 285.43 377.31 279.71 C 370.50 273.47 364.58 266.29 357.65 260.21 M 140.43 501.09 C 140.65 502.47 141.34 502.71 142.51 501.82 C 142.29 500.43 141.59 500.19 140.43 501.09 Z" />
</g>
<g id="#e1e1e1ff">
<path fill="#e1e1e1" opacity="1.00" d=" M 403.08 29.75 C 412.91 28.72 423.10 28.30 432.62 31.44 C 448.29 36.44 463.94 41.52 479.63 46.48 C 488.68 50.21 497.48 54.56 506.30 58.82 C 516.13 64.00 526.34 68.81 534.71 76.27 C 551.04 90.67 562.18 109.69 573.62 127.94 C 570.53 128.08 567.45 128.46 564.36 128.46 C 550.56 127.88 536.76 128.80 522.96 128.53 C 482.33 128.92 441.70 129.70 401.08 130.90 C 397.43 131.06 394.54 133.60 391.79 135.72 C 386.90 139.92 381.31 143.22 376.47 147.48 C 369.80 153.24 363.14 159.06 355.69 163.81 C 355.71 187.39 355.27 210.98 355.69 234.55 C 354.85 245.04 353.83 255.52 352.95 266.00 C 351.18 310.81 347.89 355.57 347.63 400.43 C 338.33 404.00 328.25 406.12 320.09 412.12 C 316.18 414.87 313.34 418.77 310.44 422.50 C 300.88 434.96 293.63 448.95 284.79 461.90 C 279.99 469.10 276.90 477.24 273.13 484.98 C 256.69 520.75 240.69 556.71 224.66 592.66 C 191.70 666.56 157.59 739.93 125.01 813.99 C 119.48 827.33 102.38 834.53 89.05 828.80 C 84.54 826.91 79.77 825.69 75.34 823.60 C 68.48 819.99 63.24 812.92 62.92 805.02 C 62.17 798.16 64.24 791.50 66.31 785.06 C 95.26 688.17 122.01 590.64 149.39 493.31 C 152.82 482.52 157.30 472.07 160.11 461.08 C 163.44 449.78 168.22 438.97 171.51 427.65 C 176.64 411.60 183.61 396.18 188.15 379.93 C 190.53 371.24 195.67 363.26 195.98 354.06 C 196.37 303.53 194.21 252.90 198.31 202.47 C 201.18 174.87 210.95 148.40 224.03 124.08 C 233.92 105.15 243.93 85.52 260.06 71.04 C 271.03 61.90 283.80 55.34 295.89 47.84 C 302.96 43.48 310.91 40.85 318.91 38.76 C 331.46 35.64 343.85 31.34 356.89 30.82 C 372.26 29.18 387.71 31.28 403.08 29.75 M 265.74 271.71 C 260.30 273.79 253.82 275.13 250.37 280.30 C 249.00 284.66 249.49 289.37 249.77 293.88 C 251.57 309.25 252.68 324.68 253.76 340.11 C 254.89 352.78 256.17 365.62 260.28 377.73 C 263.55 377.78 266.87 377.62 269.98 376.53 C 280.43 373.43 287.80 364.08 298.79 362.25 C 298.15 335.45 299.48 308.49 295.78 281.85 C 294.90 276.61 293.05 270.05 287.12 268.67 C 279.92 265.68 272.56 269.52 265.74 271.71 M 194.52 398.71 C 195.11 408.22 192.92 417.59 189.74 426.48 C 186.67 440.40 180.28 453.31 177.17 467.23 C 167.90 496.12 158.80 525.08 149.82 554.07 C 136.91 595.91 123.58 637.63 110.60 679.45 C 103.22 702.76 95.65 726.03 89.28 749.64 C 97.21 749.30 105.06 746.49 113.03 747.87 C 117.83 748.09 120.08 752.90 123.67 755.36 C 126.15 756.90 126.62 759.68 126.64 762.40 C 127.30 762.72 128.61 763.38 129.27 763.70 C 133.19 757.45 136.02 750.60 138.92 743.84 C 145.49 727.35 153.10 711.31 159.96 694.95 C 167.67 676.72 175.53 658.55 183.68 640.51 C 188.67 628.42 193.35 616.16 199.48 604.58 C 203.42 595.20 206.81 585.55 211.56 576.53 C 216.27 568.12 218.11 558.43 223.18 550.19 C 227.52 541.08 230.93 531.55 235.60 522.60 C 245.60 501.64 254.67 480.18 266.41 460.11 C 270.55 453.16 274.72 446.17 280.15 440.13 C 284.04 433.63 290.99 428.98 292.53 421.18 C 280.64 425.21 268.93 429.85 256.89 433.46 C 248.01 435.84 237.41 436.18 229.85 430.17 C 222.74 423.98 215.06 418.27 209.31 410.70 C 206.22 406.59 201.05 404.06 199.57 398.83 C 197.88 398.79 196.20 398.75 194.52 398.71 M 88.58 765.51 C 80.40 770.90 76.78 781.49 78.11 790.94 C 78.47 792.49 77.10 795.19 78.96 796.01 L 79.54 796.38 C 79.25 798.09 77.43 800.00 79.45 801.56 C 81.83 804.54 86.03 804.74 88.95 807.05 C 96.58 807.07 104.30 807.16 111.82 805.76 C 117.23 803.22 122.05 798.48 123.50 792.55 C 124.79 785.60 124.00 777.98 119.90 772.06 C 116.94 767.76 112.85 763.48 107.42 762.77 C 101.11 761.76 94.05 761.74 88.58 765.51 Z" />
</g>
<g id="#745c5dff">
<path fill="#745c5d" opacity="1.00" d=" M 537.62 132.70 C 546.43 131.14 555.47 132.07 564.38 132.11 C 561.77 133.38 558.84 132.97 556.05 133.01 C 549.90 132.89 543.74 133.36 537.62 132.70 Z" />
</g>
<g id="#895940ff">
<path fill="#895940" opacity="1.00" d=" M 503.85 134.45 C 505.16 133.96 506.50 133.51 507.87 133.18 C 507.67 133.58 507.27 134.36 507.07 134.76 C 513.04 137.24 519.04 139.63 525.11 141.86 C 529.94 143.60 533.79 147.12 537.66 150.37 C 550.61 162.70 558.27 180.22 559.30 198.01 C 559.77 204.36 558.52 210.65 558.09 216.96 C 557.85 220.55 558.36 224.18 557.71 227.73 C 556.75 231.29 554.19 234.04 552.09 236.97 C 550.03 239.76 548.58 242.93 546.79 245.88 C 537.46 261.05 522.08 272.34 504.84 276.73 L 504.46 276.70 C 497.59 275.49 490.54 275.84 483.62 276.33 C 476.51 275.71 469.37 276.31 462.26 275.90 C 458.54 271.07 452.97 268.39 448.17 264.85 C 442.80 260.99 437.44 256.49 434.77 250.27 C 429.99 239.98 424.56 229.53 423.85 217.99 C 423.39 205.60 424.77 192.93 429.24 181.31 C 434.42 170.99 440.44 160.83 448.71 152.66 C 455.91 145.42 465.59 141.56 474.89 137.80 C 479.91 139.24 484.90 137.17 489.89 136.62 C 494.13 135.89 498.46 136.24 502.72 135.78 C 502.93 135.50 503.36 134.93 503.57 134.65 L 503.85 134.45 M 472.40 146.55 C 466.60 149.57 460.15 150.90 454.04 153.12 C 451.25 154.10 449.64 156.76 447.77 158.87 C 439.25 169.19 430.99 180.62 428.69 194.12 C 427.44 198.94 428.23 203.96 427.51 208.85 C 426.98 213.24 426.38 217.83 427.75 222.14 C 430.69 231.20 432.34 241.06 438.30 248.78 C 439.93 250.97 441.53 253.44 444.29 254.31 C 439.39 245.98 432.62 237.72 432.76 227.51 C 439.32 232.98 439.46 243.15 446.46 248.37 C 452.87 253.04 459.23 257.77 465.79 262.21 C 467.46 263.35 468.46 265.16 469.58 266.79 C 470.08 265.14 470.59 263.49 471.08 261.84 C 475.66 261.74 480.53 263.95 481.62 268.79 C 482.51 267.51 483.42 266.26 484.37 265.02 C 486.78 266.04 490.12 266.40 491.02 263.25 C 491.51 262.87 492.49 262.12 492.98 261.75 C 492.92 263.14 492.91 264.55 492.94 265.95 C 501.13 266.05 509.67 266.76 517.39 263.44 C 520.89 261.81 523.47 258.88 525.81 255.89 C 528.19 252.73 532.66 252.99 535.74 250.82 C 543.67 245.85 548.20 237.17 552.20 229.02 C 556.25 217.48 556.42 205.03 555.87 192.95 C 554.78 185.82 552.76 178.79 549.71 172.25 C 544.55 161.71 536.07 152.95 526.18 146.73 C 522.65 144.84 519.19 142.24 515.08 141.95 C 500.80 142.19 485.85 140.68 472.40 146.55 Z" />
</g>
<g id="#8a4e51ff">
<path fill="#8a4e51" opacity="1.00" d=" M 408.60 134.77 C 411.73 134.24 414.89 133.84 418.07 133.94 C 426.86 134.15 435.66 133.57 444.43 134.38 C 441.29 134.85 438.13 135.16 434.96 135.02 C 426.17 134.79 417.38 135.16 408.60 134.77 Z" />
</g>
<g id="#868686ff">
<path fill="#868686" opacity="1.00" d=" M 503.67 134.52 C 503.71 134.51 503.81 134.47 503.85 134.45 L 503.57 134.65 L 503.67 134.52 Z" />
</g>
<g id="#b97a57ff">
<path fill="#b97a57" opacity="1.00" d=" M 472.40 146.55 C 485.85 140.68 500.80 142.19 515.08 141.95 C 519.19 142.24 522.65 144.84 526.18 146.73 C 536.07 152.95 544.55 161.71 549.71 172.25 C 552.76 178.79 554.78 185.82 555.87 192.95 C 556.42 205.03 556.25 217.48 552.20 229.02 C 548.20 237.17 543.67 245.85 535.74 250.82 C 532.66 252.99 528.19 252.73 525.81 255.89 C 523.47 258.88 520.89 261.81 517.39 263.44 C 509.67 266.76 501.13 266.05 492.94 265.95 C 492.91 264.55 492.92 263.14 492.98 261.75 C 493.19 255.82 494.46 249.28 491.12 243.95 C 488.56 239.71 486.05 234.70 481.15 232.82 C 477.80 231.62 474.12 230.73 470.57 231.46 C 467.32 232.79 464.47 235.12 460.86 235.49 C 459.26 242.49 459.95 250.38 464.03 256.43 C 464.65 250.56 463.14 244.51 464.75 238.76 C 468.10 231.87 479.29 231.02 483.86 237.12 C 486.98 240.63 489.26 245.03 489.47 249.80 C 489.66 254.32 490.10 258.81 491.02 263.25 C 490.12 266.40 486.78 266.04 484.37 265.02 C 483.42 266.26 482.51 267.51 481.62 268.79 C 480.53 263.95 475.66 261.74 471.08 261.84 C 470.59 263.49 470.08 265.14 469.58 266.79 C 468.46 265.16 467.46 263.35 465.79 262.21 C 459.23 257.77 452.87 253.04 446.46 248.37 C 439.46 243.15 439.32 232.98 432.76 227.51 C 432.62 237.72 439.39 245.98 444.29 254.31 C 441.53 253.44 439.93 250.97 438.30 248.78 C 432.34 241.06 430.69 231.20 427.75 222.14 C 426.38 217.83 426.98 213.24 427.51 208.85 C 428.23 203.96 427.44 198.94 428.69 194.12 C 430.99 180.62 439.25 169.19 447.77 158.87 C 449.64 156.76 451.25 154.10 454.04 153.12 C 460.15 150.90 466.60 149.57 472.40 146.55 M 485.97 155.82 C 479.79 158.75 473.87 162.38 467.18 164.11 C 468.29 167.97 469.75 171.84 469.69 175.92 C 469.74 181.96 470.21 188.08 471.98 193.88 C 472.94 198.15 477.90 198.42 481.30 199.69 C 481.58 200.80 481.85 201.92 482.13 203.04 C 482.99 201.76 484.07 200.65 484.96 199.39 C 487.28 202.06 488.43 205.42 489.32 208.78 C 494.28 210.72 500.53 210.51 504.55 214.19 C 503.56 219.36 504.43 224.46 505.56 229.53 C 500.53 227.71 494.45 226.60 491.50 221.62 C 488.87 217.29 486.42 212.20 481.10 210.74 C 481.34 208.42 481.58 206.10 481.88 203.78 C 480.16 207.19 477.56 210.02 474.92 212.73 C 484.83 212.86 491.76 222.03 493.97 230.88 C 487.81 229.64 482.74 225.72 477.42 222.62 C 475.00 221.38 475.00 218.26 473.16 216.48 C 472.58 218.26 470.78 220.67 472.73 222.24 C 478.48 226.78 485.82 228.83 491.44 233.60 C 494.58 236.50 498.89 237.46 503.01 237.99 C 501.39 235.81 499.48 233.70 498.84 230.98 C 504.08 232.77 503.95 240.37 509.82 240.97 C 509.35 236.86 507.60 233.05 506.92 228.99 C 505.99 224.49 505.92 219.87 506.26 215.30 C 510.84 215.12 515.80 216.11 520.03 213.87 C 521.95 213.07 522.48 210.90 523.22 209.17 C 522.23 209.36 521.25 209.53 520.27 209.70 C 519.18 207.71 518.23 205.66 517.27 203.62 L 518.05 204.49 C 518.57 199.21 517.63 193.75 519.60 188.68 C 521.60 183.59 517.35 179.24 514.89 175.22 C 512.60 172.13 512.31 168.21 511.55 164.58 C 510.78 160.47 508.06 157.02 507.63 152.82 C 500.67 155.27 493.25 155.55 485.97 155.82 M 464.70 229.21 C 467.84 230.50 470.92 227.87 471.25 224.72 C 468.06 223.90 465.05 225.93 464.70 229.21 M 513.89 241.79 C 515.30 245.89 518.58 248.82 521.06 252.25 C 521.94 250.55 524.76 248.70 523.41 246.66 C 520.33 244.87 517.07 243.39 513.89 241.79 Z" />
</g>
<g id="#7d4f35ff">
<path fill="#7d4f35" opacity="1.00" d=" M 485.97 155.82 C 493.25 155.55 500.67 155.27 507.63 152.82 C 508.06 157.02 510.78 160.47 511.55 164.58 C 512.31 168.21 512.60 172.13 514.89 175.22 C 517.35 179.24 521.60 183.59 519.60 188.68 C 517.63 193.75 518.57 199.21 518.05 204.49 L 517.27 203.62 C 515.63 199.61 510.88 201.11 507.51 200.63 C 510.21 199.81 513.08 199.89 515.86 200.18 C 515.78 197.57 516.26 194.85 515.51 192.32 C 514.10 191.05 512.07 190.94 510.36 190.34 C 512.94 190.18 516.01 189.72 517.88 187.85 C 519.40 183.38 515.17 180.29 512.86 177.12 C 509.30 172.95 509.02 167.27 508.02 162.13 C 505.10 161.91 502.18 161.68 499.27 161.41 C 494.44 165.41 488.95 168.45 483.84 172.04 C 483.92 173.78 484.31 175.48 484.67 177.18 C 486.62 185.37 486.75 194.01 490.07 201.84 C 491.01 204.49 493.66 205.84 496.02 207.00 C 503.50 210.66 512.16 210.90 520.27 209.70 C 521.25 209.53 522.23 209.36 523.22 209.17 C 522.48 210.90 521.95 213.07 520.03 213.87 C 515.80 216.11 510.84 215.12 506.26 215.30 C 505.92 219.87 505.99 224.49 506.92 228.99 C 507.60 233.05 509.35 236.86 509.82 240.97 C 503.95 240.37 504.08 232.77 498.84 230.98 C 499.48 233.70 501.39 235.81 503.01 237.99 C 498.89 237.46 494.58 236.50 491.44 233.60 C 485.82 228.83 478.48 226.78 472.73 222.24 C 470.78 220.67 472.58 218.26 473.16 216.48 C 475.00 218.26 475.00 221.38 477.42 222.62 C 482.74 225.72 487.81 229.64 493.97 230.88 C 491.76 222.03 484.83 212.86 474.92 212.73 C 477.56 210.02 480.16 207.19 481.88 203.78 C 481.58 206.10 481.34 208.42 481.10 210.74 C 486.42 212.20 488.87 217.29 491.50 221.62 C 494.45 226.60 500.53 227.71 505.56 229.53 C 504.43 224.46 503.56 219.36 504.55 214.19 C 500.53 210.51 494.28 210.72 489.32 208.78 C 488.43 205.42 487.28 202.06 484.96 199.39 C 484.07 200.65 482.99 201.76 482.13 203.04 C 481.85 201.92 481.58 200.80 481.30 199.69 C 477.90 198.42 472.94 198.15 471.98 193.88 C 470.21 188.08 469.74 181.96 469.69 175.92 C 469.75 171.84 468.29 167.97 467.18 164.11 C 473.87 162.38 479.79 158.75 485.97 155.82 M 481.16 184.07 C 481.08 185.44 481.01 186.81 480.94 188.19 C 482.32 188.41 483.71 188.38 485.10 188.27 C 485.06 186.85 485.07 185.44 485.13 184.02 C 483.80 184.04 482.48 184.05 481.16 184.07 Z" />
<path fill="#7d4f35" opacity="1.00" d=" M 470.57 231.46 C 474.12 230.73 477.80 231.62 481.15 232.82 C 486.05 234.70 488.56 239.71 491.12 243.95 C 494.46 249.28 493.19 255.82 492.98 261.75 C 492.49 262.12 491.51 262.87 491.02 263.25 C 490.10 258.81 489.66 254.32 489.47 249.80 C 489.26 245.03 486.98 240.63 483.86 237.12 C 479.29 231.02 468.10 231.87 464.75 238.76 C 463.14 244.51 464.65 250.56 464.03 256.43 C 459.95 250.38 459.26 242.49 460.86 235.49 C 464.47 235.12 467.32 232.79 470.57 231.46 Z" />
</g>
<g id="#c1896aff">
<path fill="#c1896a" opacity="1.00" d=" M 499.27 161.41 C 502.18 161.68 505.10 161.91 508.02 162.13 C 509.02 167.27 509.30 172.95 512.86 177.12 C 515.17 180.29 519.40 183.38 517.88 187.85 C 516.01 189.72 512.94 190.18 510.36 190.34 C 512.07 190.94 514.10 191.05 515.51 192.32 C 516.26 194.85 515.78 197.57 515.86 200.18 C 513.08 199.89 510.21 199.81 507.51 200.63 C 510.88 201.11 515.63 199.61 517.27 203.62 C 518.23 205.66 519.18 207.71 520.27 209.70 C 512.16 210.90 503.50 210.66 496.02 207.00 C 493.66 205.84 491.01 204.49 490.07 201.84 C 486.75 194.01 486.62 185.37 484.67 177.18 C 484.31 175.48 483.92 173.78 483.84 172.04 C 488.95 168.45 494.44 165.41 499.27 161.41 M 495.72 179.08 C 498.93 180.94 504.49 178.35 504.57 174.36 C 501.48 174.61 495.60 175.06 495.72 179.08 M 502.02 181.14 C 500.31 181.86 498.62 182.62 496.92 183.35 C 499.62 184.32 502.33 185.26 505.06 186.17 C 504.73 183.69 504.33 181.23 503.99 178.76 C 503.38 179.60 502.72 180.39 502.02 181.14 Z" />
</g>
<g id="#b6876eff">
<path fill="#b6876e" opacity="1.00" d=" M 481.16 184.07 C 482.48 184.05 483.80 184.04 485.13 184.02 C 485.07 185.44 485.06 186.85 485.10 188.27 C 483.71 188.38 482.32 188.41 480.94 188.19 C 481.01 186.81 481.08 185.44 481.16 184.07 Z" />
</g>
<g id="#7d5658ff">
<path fill="#7d5658" opacity="1.00" d=" M 359.30 187.55 C 360.23 193.48 360.13 199.50 359.82 205.48 C 358.66 199.57 358.57 193.51 359.30 187.55 Z" />
</g>
<g id="#825153ff">
<path fill="#825153" opacity="1.00" d=" M 156.00 217.01 C 156.11 214.16 155.70 211.17 156.79 208.45 C 156.94 215.14 156.93 221.84 156.78 228.54 C 155.63 224.80 156.08 220.85 156.00 217.01 Z" />
</g>
<g id="#7c5759ff">
<path fill="#7c5759" opacity="1.00" d=" M 359.33 240.51 C 358.66 234.84 358.66 229.09 359.81 223.48 C 360.15 229.16 360.17 234.87 359.33 240.51 Z" />
</g>
<g id="#7f5138ff">
<path fill="#7f5138" opacity="1.00" d=" M 464.70 229.21 C 465.05 225.93 468.06 223.90 471.25 224.72 C 470.92 227.87 467.84 230.50 464.70 229.21 Z" />
</g>
<g id="#82543bff">
<path fill="#82543b" opacity="1.00" d=" M 513.89 241.79 C 517.07 243.39 520.33 244.87 523.41 246.66 C 524.76 248.70 521.94 250.55 521.06 252.25 C 518.58 248.82 515.30 245.89 513.89 241.79 Z" />
</g>
<g id="#815253ff">
<path fill="#815253" opacity="1.00" d=" M 157.26 245.66 C 158.16 255.85 158.36 266.14 157.77 276.35 C 156.73 272.98 157.19 269.41 157.14 265.94 C 157.26 259.18 156.52 252.40 157.26 245.66 Z" />
</g>
<g id="#f3f3f3ff">
<path fill="#f3f3f3" opacity="1.00" d=" M 357.65 260.21 C 364.58 266.29 370.50 273.47 377.31 279.71 C 383.07 285.43 388.89 291.09 394.49 296.98 C 384.86 305.22 373.26 310.49 361.97 316.03 C 359.10 317.98 355.21 315.05 354.77 312.00 C 356.47 294.77 355.39 277.39 357.65 260.21 Z" />
</g>
<g id="#838383ff">
<path fill="#838383" opacity="1.00" d=" M 279.43 271.44 C 285.54 270.21 291.91 276.05 290.91 282.32 C 288.52 280.88 286.62 278.33 283.72 277.93 C 278.73 279.14 273.89 281.07 268.74 281.61 C 264.62 282.46 260.08 282.20 256.32 284.26 C 253.10 287.66 254.12 292.77 254.76 296.94 C 257.65 296.52 260.56 296.29 263.48 296.13 C 260.58 297.79 257.45 298.99 254.25 299.93 C 253.30 293.74 252.82 287.44 254.24 281.28 C 262.11 276.82 270.62 273.51 279.43 271.44 Z" />
</g>
<g id="#8b6a59ff">
<path fill="#8b6a59" opacity="1.00" d=" M 483.62 276.33 C 490.54 275.84 497.59 275.49 504.46 276.70 C 497.53 277.33 490.50 277.51 483.62 276.33 Z" />
</g>
<g id="#ffffffff">
<path fill="#ffffff" opacity="1.00" d=" M 268.74 281.61 C 273.89 281.07 278.73 279.14 283.72 277.93 C 284.44 279.42 285.19 280.90 285.96 282.36 C 282.13 284.31 279.90 288.14 276.55 290.66 C 272.41 292.92 268.10 295.06 263.48 296.13 C 260.56 296.29 257.65 296.52 254.76 296.94 C 254.12 292.77 253.10 287.66 256.32 284.26 C 260.08 282.20 264.62 282.46 268.74 281.61 Z" />
<path fill="#ffffff" opacity="1.00" d=" M 282.89 308.85 C 285.53 307.01 288.37 305.49 291.40 304.40 C 291.12 307.33 290.79 310.27 290.04 313.13 C 286.90 317.25 282.51 320.24 278.45 323.39 C 276.13 324.99 273.90 327.09 270.92 327.14 C 266.09 327.81 261.85 330.33 257.39 332.12 C 257.24 327.84 256.91 323.56 256.11 319.35 C 261.78 318.07 267.16 315.83 272.46 313.50 C 275.93 311.93 279.76 311.10 282.89 308.85 Z" />
<path fill="#ffffff" opacity="1.00" d=" M 259.13 336.15 C 270.01 332.36 282.18 329.33 289.87 319.99 C 288.65 323.62 289.66 327.43 290.15 331.09 C 282.62 340.97 269.85 343.47 260.00 350.18 C 258.53 345.86 256.53 340.28 259.13 336.15 Z" />
<path fill="#ffffff" opacity="1.00" d=" M 216.17 758.26 C 226.05 755.25 236.47 752.62 246.86 754.18 C 248.84 755.50 247.76 757.94 247.59 759.84 C 240.13 759.80 232.75 760.92 225.47 762.47 C 221.03 767.71 217.13 773.37 213.22 779.01 C 219.30 777.97 225.49 777.42 231.65 778.04 C 230.91 779.29 231.15 782.01 229.08 781.82 C 222.99 782.01 216.99 783.18 211.04 784.42 C 209.51 784.55 208.80 785.99 208.14 787.18 C 203.24 796.23 199.37 805.85 196.64 815.77 C 194.66 815.91 192.69 816.10 190.72 816.28 C 190.86 812.20 190.57 807.96 192.06 804.09 C 197.25 790.22 205.61 777.90 213.44 765.44 C 214.75 763.24 213.09 759.23 216.17 758.26 Z" />
<path fill="#ffffff" opacity="1.00" d=" M 372.86 755.92 C 375.54 753.02 379.77 754.20 383.24 754.04 C 383.36 757.86 383.20 761.89 381.19 765.27 C 374.64 777.17 365.61 787.58 355.47 796.56 C 352.16 799.46 351.77 804.09 351.03 808.14 C 353.71 805.72 355.38 802.48 357.68 799.74 C 359.19 797.80 361.75 797.51 364.00 797.07 C 362.71 803.78 358.11 809.71 352.65 813.66 C 349.82 814.68 344.33 815.06 343.79 811.08 C 344.00 803.69 347.48 796.92 350.49 790.33 C 356.59 778.10 362.91 765.53 372.86 755.92 M 360.30 785.09 C 367.12 778.80 372.16 770.69 375.90 762.25 C 368.24 767.86 364.34 776.82 360.30 785.09 Z" />
<path fill="#ffffff" opacity="1.00" d=" M 470.85 757.90 C 471.83 754.77 475.57 756.35 477.98 756.02 C 477.33 759.67 476.67 763.42 474.79 766.69 C 467.16 780.60 459.61 794.63 450.65 807.74 C 447.54 810.31 443.38 805.63 445.56 802.62 C 454.24 787.86 463.39 773.33 470.85 757.90 Z" />
<path fill="#ffffff" opacity="1.00" d=" M 394.64 780.63 C 398.29 775.59 400.65 767.11 408.37 767.65 C 409.15 771.72 406.14 774.77 403.85 777.69 C 406.90 777.79 409.95 777.98 413.01 778.05 C 413.00 779.27 412.99 780.50 412.98 781.75 C 408.48 782.17 403.84 782.77 399.75 784.82 C 394.82 792.31 390.66 800.71 389.70 809.75 C 396.23 807.73 397.16 799.28 403.53 796.94 C 404.04 798.41 404.57 799.91 405.10 801.40 C 408.62 797.48 410.36 791.95 415.03 789.09 C 417.10 787.56 419.76 787.73 422.20 787.74 C 419.93 795.33 412.79 799.95 409.88 807.20 C 418.50 802.57 423.53 793.74 429.28 786.19 C 431.42 786.08 433.56 785.98 435.72 785.88 C 434.35 793.31 429.05 799.00 426.23 805.81 C 430.20 802.35 432.19 796.25 437.85 795.15 C 437.49 798.45 436.94 801.94 434.74 804.59 C 431.10 809.69 425.21 812.52 421.28 817.30 C 416.60 825.72 414.01 835.91 406.04 842.04 C 403.33 844.51 399.44 844.46 396.02 844.10 C 392.79 843.61 391.59 839.79 391.70 836.97 C 391.64 830.88 396.56 826.50 400.69 822.72 C 405.36 818.10 413.16 816.95 415.86 810.38 C 412.44 812.51 408.43 815.35 404.23 813.84 C 401.06 811.44 403.21 807.36 403.62 804.20 C 398.93 809.72 392.30 816.75 384.28 813.95 C 380.81 805.30 385.18 796.42 389.72 789.14 C 388.30 787.75 386.55 786.77 384.91 785.70 C 387.86 783.45 391.61 782.68 394.64 780.63 M 398.83 840.34 C 405.23 836.66 407.82 829.28 410.26 822.75 C 404.29 826.62 398.16 832.59 398.83 840.34 Z" />
<path fill="#ffffff" opacity="1.00" d=" M 293.40 790.54 C 297.23 786.18 302.93 782.37 308.99 784.05 C 311.18 784.34 311.68 787.03 311.54 788.87 C 311.12 791.73 311.14 794.86 309.51 797.39 C 307.87 800.05 306.32 802.79 305.19 805.72 C 309.29 802.19 311.41 794.27 318.16 795.78 C 314.49 804.91 306.86 811.48 299.00 816.98 C 294.72 825.05 291.74 834.34 284.30 840.24 C 280.99 843.55 274.15 843.38 271.94 838.95 C 271.10 834.56 272.79 829.96 275.76 826.71 C 280.93 820.90 288.70 818.28 293.84 812.46 C 290.61 811.93 285.27 813.27 284.43 808.87 C 284.50 801.76 288.92 795.68 293.40 790.54 M 304.81 788.22 C 297.98 792.69 293.59 800.03 291.47 807.79 C 294.42 806.48 296.66 804.14 298.79 801.80 C 298.83 796.50 304.11 793.36 304.81 788.22 M 278.04 837.19 C 283.99 835.03 285.68 828.20 288.02 823.00 C 283.23 826.47 279.87 831.61 278.04 837.19 Z" />
<path fill="#ffffff" opacity="1.00" d=" M 321.69 792.68 C 324.71 788.98 328.10 784.83 333.01 783.80 C 335.75 783.13 340.48 783.43 340.93 786.96 C 342.24 793.93 336.97 799.51 335.79 806.04 C 334.62 810.11 340.15 811.79 339.94 815.76 C 335.55 818.24 331.48 814.53 328.91 811.29 C 327.08 811.65 326.14 814.43 324.00 814.27 C 321.17 814.32 317.14 814.27 316.19 810.95 C 315.01 804.38 317.71 797.80 321.69 792.68 M 323.03 808.15 C 328.75 803.34 332.40 796.58 335.21 789.78 C 327.96 792.76 322.94 800.30 323.03 808.15 Z" />
<path fill="#ffffff" opacity="1.00" d=" M 239.23 786.13 C 241.38 786.01 243.53 785.88 245.68 785.73 C 245.60 787.00 245.53 788.32 245.44 789.61 C 248.81 786.46 253.49 785.12 258.03 785.95 C 255.88 789.54 253.08 792.66 250.84 796.18 C 253.59 794.87 256.06 792.84 259.06 792.13 C 260.90 791.51 262.33 794.45 260.79 795.65 C 257.09 800.92 249.11 804.84 243.40 800.29 C 237.75 804.27 234.65 810.64 230.91 816.25 C 228.91 816.08 226.90 815.96 224.90 815.86 C 227.67 805.13 232.33 794.84 239.23 786.13 Z" />
<path fill="#ffffff" opacity="1.00" d=" M 376.30 787.24 C 377.77 785.17 380.78 786.25 382.91 785.69 C 378.60 795.79 372.47 805.16 369.59 815.86 C 367.49 815.99 365.40 816.15 363.32 816.32 C 364.49 805.57 369.59 795.59 376.30 787.24 Z" />
<path fill="#ffffff" opacity="1.00" d=" M 268.81 789.83 C 270.87 787.09 274.79 787.76 277.54 788.94 C 272.74 794.38 268.05 800.20 265.95 807.28 C 272.84 803.88 274.53 795.61 279.07 790.01 C 281.01 789.96 282.95 789.75 284.89 789.95 C 284.96 795.94 279.83 800.22 279.36 806.04 C 280.01 810.10 284.80 811.88 285.27 816.12 C 280.24 818.01 275.32 814.57 272.74 810.43 C 271.21 811.59 270.01 813.39 268.11 813.95 C 265.66 814.11 263.20 814.00 260.75 814.06 C 257.23 805.14 262.68 796.05 268.81 789.83 Z" />
</g>
<g id="#777777ff">
<path fill="#777777" opacity="1.00" d=" M 285.03 285.75 C 286.60 285.10 288.23 284.58 289.92 284.26 C 291.06 285.10 291.94 286.22 292.90 287.27 C 292.54 289.90 293.19 292.49 294.15 294.92 C 292.61 295.03 291.08 295.17 289.56 295.34 C 289.94 292.37 289.88 289.36 289.57 286.39 C 288.85 286.41 287.40 286.47 286.67 286.49 C 286.26 286.31 285.44 285.94 285.03 285.75 Z" />
<path fill="#777777" opacity="1.00" d=" M 291.47 303.64 C 295.78 305.30 295.30 313.59 290.04 313.13 C 290.79 310.27 291.12 307.33 291.40 304.40 L 291.47 303.64 Z" />
<path fill="#777777" opacity="1.00" d=" M 290.93 317.59 C 292.44 317.86 294.51 318.18 294.86 320.02 C 295.76 324.25 293.66 328.69 290.15 331.09 C 289.66 327.43 288.65 323.62 289.87 319.99 C 290.13 319.39 290.66 318.19 290.93 317.59 Z" />
<path fill="#777777" opacity="1.00" d=" M 290.91 333.55 C 295.49 333.58 294.95 338.85 295.01 342.02 C 294.77 346.88 295.55 351.87 294.56 356.65 C 291.08 362.58 283.70 363.95 277.74 366.18 C 278.45 362.56 283.05 362.60 284.84 359.80 C 287.50 356.02 287.96 351.33 288.67 346.90 C 289.03 344.07 290.36 341.53 291.06 338.80 C 291.29 337.05 290.98 335.29 290.91 333.55 Z" />
</g>
<g id="#f9f9f9ff">
<path fill="#f9f9f9" opacity="1.00" d=" M 286.67 286.49 C 287.40 286.47 288.85 286.41 289.57 286.39 C 289.88 289.36 289.94 292.37 289.56 295.34 C 288.74 297.90 288.06 301.02 285.58 302.50 C 278.09 306.98 270.23 310.79 262.13 314.02 C 259.90 314.87 257.52 315.20 255.19 315.66 C 255.80 311.19 255.80 306.68 255.77 302.19 C 261.07 301.79 266.01 299.71 270.92 297.84 C 276.99 295.42 282.67 291.73 286.67 286.49 Z" />
</g>
<g id="#c3c3c3ff">
<path fill="#c3c3c3" opacity="1.00" d=" M 394.49 296.98 C 394.95 296.85 395.88 296.61 396.35 296.48 C 396.28 297.30 396.13 298.92 396.06 299.73 C 395.28 302.10 394.13 304.55 391.70 305.60 C 381.54 311.00 372.44 318.40 361.61 322.51 C 358.95 323.69 356.45 321.67 354.08 320.71 C 354.22 317.80 354.43 314.89 354.77 312.00 C 355.21 315.05 359.10 317.98 361.97 316.03 C 373.26 310.49 384.86 305.22 394.49 296.98 Z" />
</g>
<g id="#ebebebff">
<path fill="#ebebeb" opacity="1.00" d=" M 510.03 300.35 C 522.91 297.82 536.17 299.65 549.22 298.76 C 540.62 314.22 531.60 329.59 520.18 343.16 C 516.01 347.97 511.72 352.77 506.52 356.50 C 496.97 363.77 487.82 371.90 476.71 376.74 C 455.97 384.65 435.44 394.47 413.06 396.62 C 392.43 398.26 371.88 395.11 351.32 394.00 C 351.94 369.57 353.95 345.17 354.08 320.71 C 356.45 321.67 358.95 323.69 361.61 322.51 C 372.44 318.40 381.54 311.00 391.70 305.60 C 394.13 304.55 395.28 302.10 396.06 299.73 C 403.32 300.74 410.66 300.96 417.99 300.71 C 429.95 299.89 441.96 300.75 453.94 300.13 C 472.63 300.12 491.34 299.64 510.03 300.35 Z" />
</g>
<g id="#fefefeff">
<path fill="#fefefe" opacity="1.00" d=" M 283.56 343.58 C 285.01 340.77 287.87 338.90 291.06 338.80 C 290.36 341.53 289.03 344.07 288.67 346.90 C 287.96 351.33 287.50 356.02 284.84 359.80 C 283.05 362.60 278.45 362.56 277.74 366.18 C 273.26 368.83 268.73 371.41 263.92 373.43 C 261.13 366.94 260.62 359.81 259.61 352.89 C 264.88 352.59 270.02 351.05 274.63 348.52 C 277.70 347.03 280.18 344.42 283.56 343.58 Z" />
</g>
<g id="#050505ff">
<path fill="#050505" opacity="1.00" d=" M 194.52 398.71 C 196.20 398.75 197.88 398.79 199.57 398.83 C 201.05 404.06 206.22 406.59 209.31 410.70 C 215.06 418.27 222.74 423.98 229.85 430.17 C 237.41 436.18 248.01 435.84 256.89 433.46 C 268.93 429.85 280.64 425.21 292.53 421.18 C 290.99 428.98 284.04 433.63 280.15 440.13 C 274.72 446.17 270.55 453.16 266.41 460.11 C 254.67 480.18 245.60 501.64 235.60 522.60 C 230.93 531.55 227.52 541.08 223.18 550.19 C 218.11 558.43 216.27 568.12 211.56 576.53 C 206.81 585.55 203.42 595.20 199.48 604.58 C 193.35 616.16 188.67 628.42 183.68 640.51 C 175.53 658.55 167.67 676.72 159.96 694.95 C 153.10 711.31 145.49 727.35 138.92 743.84 C 136.02 750.60 133.19 757.45 129.27 763.70 C 128.61 763.38 127.30 762.72 126.64 762.40 C 126.62 759.68 126.15 756.90 123.67 755.36 C 120.08 752.90 117.83 748.09 113.03 747.87 C 105.06 746.49 97.21 749.30 89.28 749.64 C 95.65 726.03 103.22 702.76 110.60 679.45 C 123.58 637.63 136.91 595.91 149.82 554.07 C 158.80 525.08 167.90 496.12 177.17 467.23 C 180.28 453.31 186.67 440.40 189.74 426.48 C 192.92 417.59 195.11 408.22 194.52 398.71 M 199.40 409.25 C 198.06 415.18 195.61 420.88 195.81 427.08 C 194.35 431.56 191.11 435.38 190.13 440.11 C 185.43 458.73 178.07 476.55 172.97 495.05 C 170.13 507.46 164.44 519.00 161.52 531.38 C 159.75 538.95 157.00 546.23 154.60 553.61 C 152.10 560.66 150.64 568.03 147.98 575.03 C 144.31 588.73 137.96 601.65 135.56 615.70 C 134.97 618.73 133.64 621.53 132.46 624.36 C 127.43 636.99 125.11 650.50 120.34 663.22 C 119.31 666.05 118.64 669.00 117.86 671.92 C 113.53 687.39 107.16 702.24 103.62 717.94 C 101.36 726.81 96.32 734.90 95.58 744.18 C 102.37 743.77 109.33 741.84 116.06 743.75 C 121.54 745.74 124.87 750.92 129.56 754.12 C 131.04 750.68 132.36 747.19 133.60 743.67 C 134.98 739.61 137.62 736.17 139.39 732.29 C 143.27 723.99 145.56 715.00 150.10 707.01 C 153.58 700.50 155.62 693.36 158.63 686.64 C 167.13 666.31 176.59 646.40 185.11 626.08 C 193.47 605.39 203.06 585.23 211.77 564.70 C 218.76 548.71 225.55 532.64 232.73 516.74 C 242.00 498.55 250.65 480.05 259.85 461.82 C 265.21 451.10 273.40 442.14 279.27 431.73 C 277.26 432.13 275.29 432.68 273.38 433.41 C 266.71 436.20 259.57 437.54 252.65 439.57 C 244.35 442.10 235.25 439.69 228.33 434.73 C 216.91 428.38 210.28 416.33 199.40 409.25 Z" />
</g>
<g id="#686868ff">
<path fill="#686868" opacity="1.00" d=" M 199.40 409.25 C 210.28 416.33 216.91 428.38 228.33 434.73 C 235.25 439.69 244.35 442.10 252.65 439.57 C 259.57 437.54 266.71 436.20 273.38 433.41 C 275.29 432.68 277.26 432.13 279.27 431.73 C 273.40 442.14 265.21 451.10 259.85 461.82 C 250.65 480.05 242.00 498.55 232.73 516.74 C 225.55 532.64 218.76 548.71 211.77 564.70 C 203.06 585.23 193.47 605.39 185.11 626.08 C 176.59 646.40 167.13 666.31 158.63 686.64 C 155.62 693.36 153.58 700.50 150.10 707.01 C 145.56 715.00 143.27 723.99 139.39 732.29 C 137.62 736.17 134.98 739.61 133.60 743.67 C 132.36 747.19 131.04 750.68 129.56 754.12 C 124.87 750.92 121.54 745.74 116.06 743.75 C 109.33 741.84 102.37 743.77 95.58 744.18 C 96.32 734.90 101.36 726.81 103.62 717.94 C 107.16 702.24 113.53 687.39 117.86 671.92 C 118.64 669.00 119.31 666.05 120.34 663.22 C 125.11 650.50 127.43 636.99 132.46 624.36 C 133.64 621.53 134.97 618.73 135.56 615.70 C 137.96 601.65 144.31 588.73 147.98 575.03 C 150.64 568.03 152.10 560.66 154.60 553.61 C 157.00 546.23 159.75 538.95 161.52 531.38 C 164.44 519.00 170.13 507.46 172.97 495.05 C 178.07 476.55 185.43 458.73 190.13 440.11 C 191.11 435.38 194.35 431.56 195.81 427.08 C 195.61 420.88 198.06 415.18 199.40 409.25 Z" />
</g>
<g id="#141414ff">
<path fill="#141414" opacity="1.00" d=" M 140.43 501.09 C 141.59 500.19 142.29 500.43 142.51 501.82 C 141.34 502.71 140.65 502.47 140.43 501.09 Z" />
</g>
<g id="#fbfffcff">
<path fill="#fbfffc" opacity="1.00" d=" M 380.95 778.19 C 379.68 772.15 384.85 766.71 390.84 767.05 C 392.44 772.81 387.42 780.56 380.95 778.19 Z" />
</g>
<g id="#9d9d9dff">
<path fill="#9d9d9d" opacity="1.00" d=" M 117.23 781.39 C 117.84 780.27 118.19 779.05 118.59 777.87 C 120.60 781.82 121.01 786.14 120.24 790.47 C 116.92 794.72 113.69 799.14 109.54 802.64 C 102.88 806.52 95.09 803.52 88.02 802.71 C 87.38 800.52 86.98 798.24 85.91 796.22 C 85.93 795.52 85.97 794.12 85.99 793.43 C 90.47 794.17 94.13 798.09 98.96 796.86 C 106.90 794.44 112.74 788.07 117.23 781.39 Z" />
</g>
<g id="#f9fdf4ff">
<path fill="#f9fdf4" opacity="1.00" d=" M 440.58 812.40 C 442.69 811.58 445.08 812.12 447.30 811.98 C 447.39 815.33 446.65 818.62 445.61 821.80 C 443.06 822.07 440.50 822.22 437.95 822.25 C 438.15 818.83 438.92 815.41 440.58 812.40 Z" />
</g>
</svg>
